<?xml version="1.0" standalone="no"?><!DOCTYPE svg PUBLIC "-//W3C//DTD SVG 1.1//EN" "http://www.w3.org/Graphics/SVG/1.1/DTD/svg11.dtd"><svg t="1739194617044" class="icon" viewBox="0 0 1030 1024" version="1.1" xmlns="http://www.w3.org/2000/svg" p-id="16472" xmlns:xlink="http://www.w3.org/1999/xlink" width="128.75" height="128"><path d="M801.798321 43.753877c55.852247 0 101.135802 45.283556 101.135802 101.135802l-0.006321 737.28h66.945581a56.888889 56.888889 0 0 1 0 113.777778h-910.222223a56.888889 56.888889 0 1 1 0-113.777778h65.517038v-610.860247c0-125.673877 101.881679-227.555556 227.555555-227.555555h449.074568zM738.544198 157.613827H365.409975c-69.82163 0-126.419753 56.598123-126.419753 126.419753v594.68484h550.128198V208.188049a50.567901 50.567901 0 0 0-48.993976-50.548938l-1.580246-0.025284zM535.115852 422.406321a56.888889 56.888889 0 0 1 20.821333 77.716543L518.637037 564.729679l86.016 0.006321a56.888889 56.888889 0 0 1 56.888889 56.888889l-0.006321 0.872296a56.623407 56.623407 0 0 1-7.61679 29.721284l-82.17284 142.329679a56.888889 56.888889 0 1 1-98.531555-56.888889l34.139654-59.151802-79.688691 0.006321a56.914173 56.914173 0 0 1-54.031803-39.025778 56.832 56.832 0 0 1 1.605531-53.930667l82.17284-142.323358a56.888889 56.888889 0 0 1 77.710222-20.827654zM638.419753 246.518519a56.888889 56.888889 0 1 1 0 113.777777H398.222222a56.888889 56.888889 0 0 1 0-113.777777h240.197531z" p-id="16473" fill="#f4ea2a"></path></svg>