<?xml version="1.0" standalone="no"?><!DOCTYPE svg PUBLIC "-//W3C//DTD SVG 1.1//EN" "http://www.w3.org/Graphics/SVG/1.1/DTD/svg11.dtd"><svg t="1739193743216" class="icon" viewBox="0 0 1024 1024" version="1.1" xmlns="http://www.w3.org/2000/svg" p-id="4222" width="128" height="128" xmlns:xlink="http://www.w3.org/1999/xlink"><path d="M341.8624 222.552747l168.710827 94.63808a6.331733 6.331733 0 0 0 2.92864 0.77824 5.635413 5.635413 0 0 0 2.92864-0.77824l168.707413-94.63808a6.055253 6.055253 0 0 0 3.05152-5.198507 5.922133 5.922133 0 0 0-3.05152-5.198507l-168.707413-94.58688a5.894827 5.894827 0 0 0-5.802667 0l-168.76544 94.580054a6.017707 6.017707 0 0 0 0 10.40384z m343.27552 271.960746l-168.707413-94.641493a5.894827 5.894827 0 0 0-5.802667 0l-168.772267 94.641493a6.00064 6.00064 0 0 0-2.99008 5.198507c0 0.177493 0.058027 0.341333 0.058027 0.535893a8.46848 8.46848 0 0 0-0.058027 1.314134v358.949546a14.404267 14.404267 0 0 0 7.294294 12.496214l160.344746 89.91744a14.57152 14.57152 0 0 0 6.99392 1.85344 13.93664 13.93664 0 0 0 6.99392-1.85344l160.344747-89.91744a14.20288 14.20288 0 0 0 7.294293-12.496214v-358.946133a9.280853 9.280853 0 0 0-0.058026-1.314133c0-0.177493 0.058027-0.341333 0.058026-0.535894a6.007467 6.007467 0 0 0-2.986666-5.205333z m-185.924267 431.469227l-131.754666-73.895253v-332.823894l131.70688 73.895254v332.82048h0.058026z m160.344747-73.895253l-131.710293 73.895253V593.1008l131.710293-73.895253v332.88192z" fill="#f4ea2a" p-id="4223"></path><path d="M438.8352 358.8608a5.922133 5.922133 0 0 0-3.05152-5.198507L267.144533 259.0208a5.891413 5.891413 0 0 0-5.802666 0l-168.78592 94.624427a6.05184 6.05184 0 0 0-3.05152 5.198506c0 0.119467 0.058027 0.177493 0.058026 0.29696s-0.058027 0.177493-0.058026 0.29696c0 0.177493 0.058027 0.341333 0.058026 0.535894 0 0.361813-0.058027 0.781653-0.058026 1.25952v358.966613a14.404267 14.404267 0 0 0 7.294293 12.496213L257.143467 822.613333a14.574933 14.574933 0 0 0 6.99392 1.85344 13.93664 13.93664 0 0 0 6.99392-1.85344l7.277226-4.12672v-366.250666l157.29664-88.234667a5.720747 5.720747 0 0 0 3.106134-5.143893zM249.849173 785.72544l-131.70688-73.895253v-332.823894l131.710294 73.895254v332.823893z m687.643307-426.277547c0-0.119467-0.058027-0.177493-0.058027-0.29696s0.058027-0.177493 0.058027-0.29696a6.4 6.4 0 0 0-0.177493-1.49504v-0.119466a6.314667 6.314667 0 0 0-2.809174-3.64544l-158.3104-88.7808-10.40384-5.802667c-0.477867-0.238933-0.955733-0.416427-1.4336-0.600747a6.396587 6.396587 0 0 0-1.49504-0.177493 5.649067 5.649067 0 0 0-2.932053 0.77824l-20.74624 11.656533-147.964587 82.981547a5.76512 5.76512 0 0 0-2.809173 3.64544 4.468053 4.468053 0 0 0-0.238933 1.553067 5.922133 5.922133 0 0 0 3.05152 5.198506l157.29664 88.244907v366.31552l7.294293 4.12672a14.574933 14.574933 0 0 0 6.99392 1.85344 13.93664 13.93664 0 0 0 6.99392-1.85344l160.344747-89.91744a14.20288 14.20288 0 0 0 7.294293-12.496213v-359.082667a9.280853 9.280853 0 0 0-0.058027-1.314133 1.191253 1.191253 0 0 0 0.116054-0.477867z m-28.64128 352.382294l-131.703467 73.89184v-332.88192l131.703467-73.895254v332.885334z" fill="#f4ea2a" p-id="4224"></path></svg>