<?xml version="1.0" standalone="no"?><!DOCTYPE svg PUBLIC "-//W3C//DTD SVG 1.1//EN" "http://www.w3.org/Graphics/SVG/1.1/DTD/svg11.dtd"><svg t="1739194667653" class="icon" viewBox="0 0 1024 1024" version="1.1" xmlns="http://www.w3.org/2000/svg" p-id="17653" xmlns:xlink="http://www.w3.org/1999/xlink" width="128" height="128"><path d="M276.352 785.824c-52.192 0-108.672-22.08-170.752-83.136a31.872 31.872 0 0 1-9.6-22.816V173.12a32 32 0 0 1 64 0v493.024c106.72 98.368 176 51.776 279.328-17.824 105.024-70.752 233.696-157.44 424.672-63.648V173.12a32 32 0 1 1 64 0v465.952a32 32 0 0 1-48.896 27.2c-183.168-113.568-295.424-37.984-404.032 35.168-60.256 40.576-125.248 84.384-198.72 84.384z" fill="#f4ea2a" p-id="17654"></path><path d="M512 282.176c-69.472 0-416-5.248-416-109.056s346.528-109.056 416-109.056 416 5.28 416 109.056-346.528 109.056-416 109.056zM168.96 173.12c36.896 18.592 154.176 45.056 343.04 45.056s306.144-26.464 343.04-45.056C818.144 154.528 700.864 128.064 512 128.064c-188.896 0-306.176 26.464-343.04 45.056z" fill="#f4ea2a" p-id="17655"></path><path d="M128 680.384v167.424C128 892.096 299.936 928 512 928s384-35.872 384-80.16v-208.352c-389.728-242.016-498.048 306.336-768 40.896z" fill="#f4ea2a" p-id="17656"></path><path d="M512 960c-69.472 0-416-5.408-416-112.192v-167.424a32 32 0 0 1 54.432-22.816c44.672 43.936 86.048 65.28 126.432 65.28h0.032c52.672 0 103.52-34.304 162.4-74.016 72.768-49.088 155.264-104.704 262.336-104.704 68.256 0 137.344 22.304 211.232 68.192a32 32 0 0 1 15.136 27.168v208.352C928 954.592 581.472 960 512 960zM160 843.008C180.576 862.016 301.504 896 512 896s331.424-33.984 352-52.96v-185.408c-57.6-33.28-110.848-49.504-162.336-49.504-87.52 0-158.208 47.68-226.592 93.792-64.768 43.648-125.952 84.928-198.144 84.928h-0.032c-39.552 0-78.144-12.704-116.864-38.624v94.784z" fill="#f4ea2a" p-id="17657"></path></svg>