<?xml version="1.0" standalone="no"?><!DOCTYPE svg PUBLIC "-//W3C//DTD SVG 1.1//EN" "http://www.w3.org/Graphics/SVG/1.1/DTD/svg11.dtd"><svg t="1739194471543" class="icon" viewBox="0 0 1024 1024" version="1.1" xmlns="http://www.w3.org/2000/svg" p-id="15377" xmlns:xlink="http://www.w3.org/1999/xlink" width="128" height="128"><path d="M660.992 28.444444c6.741333 0 13.198222 2.304 18.289778 6.456889l2.446222 2.247111 192.312889 198.599112a27.306667 27.306667 0 0 1 7.509333 15.445333l0.227556 3.498667v184.746666c0 15.274667-12.743111 27.648-28.444445 27.648a28.16 28.16 0 0 1-28.245333-24.405333L824.888889 439.438222V312.888889h-142.222222a56.888889 56.888889 0 0 1-56.746667-52.622222L625.777778 256V83.683556H85.333333v856.604444h413.980445c15.701333 0 28.444444 12.373333 28.444444 27.648a27.932444 27.932444 0 0 1-25.116444 27.420444l-3.328 0.199112H85.333333c-29.980444 0-54.556444-22.556444-56.746666-51.143112L28.444444 940.288V83.712c0-29.127111 23.210667-53.020444 52.622223-55.125333L85.333333 28.444444h575.658667zM353.877333 666.567111l32.142223 32.199111-131.185778 131.214222L181.76 744.106667l34.645333-29.496889 41.073778 48.270222 96.369778-96.341333z m0-227.555555l32.142223 32.199111-131.185778 131.214222L181.76 516.551111l34.645333-29.496889 41.073778 48.270222 96.369778-96.341333z m0-227.555556l32.142223 32.199111-131.185778 131.214222L181.76 288.995556l34.645333-29.496889 41.073778 48.270222 96.369778-96.341333zM682.666667 118.784V256h132.892444L682.666667 118.784z" fill="#f4ea2a" p-id="15378"></path><path d="M739.555556 483.555556a256 256 0 1 1 0 512 256 256 0 0 1 0-512z m0 51.2a204.8 204.8 0 1 0 0 409.6 204.8 204.8 0 0 0 0-409.6z m11.491555 62.577777c3.754667 0 7.054222 2.844444 7.054222 6.058667v23.409778c19.285333 0.796444 39.480889 2.816 48.412445 4.835555 3.299556 0.398222 6.115556 2.816 6.115555 5.632v21.788445c0 2.844444-2.360889 5.262222-5.632 5.262222h-0.483555a948.337778 948.337778 0 0 0-67.697778-2.844444c-25.372444 0-36.181333 7.68-36.181333 20.992 0 9.671111 5.632 15.729778 28.216889 26.225777l41.358222 19.768889c37.603556 18.147556 47.928889 36.693333 47.928889 60.103111-0.938667 25.827556-16.440889 52.451556-62.520889 60.131556v27.022222c0 3.242667-3.271111 6.058667-7.025778 6.058667h-31.032889c-3.754667 0-7.054222-2.844444-7.054222-6.058667v-25.031111c-17.863111-0.369778-31.971556-2.787556-44.657778-4.835556-3.271111-0.398222-6.570667-2.816-6.570667-6.030222v-21.390222c0-3.214222 3.299556-5.660444 6.570667-5.660444h0.483556c13.624889 1.621333 47.928889 2.844444 60.615111 2.844444 30.577778 0 39.964444-9.272889 39.964444-26.624 0-11.719111-6.570667-17.351111-29.127111-29.070222l-45.141333-23.381334C662.670222 720.384 654.222222 703.032889 654.222222 682.467556c0-27.022222 15.502222-48.412444 58.311111-54.471112v-24.604444c0-3.242667 3.271111-6.058667 7.025778-6.058667h31.488z" fill="#f4ea2a" p-id="15379"></path></svg>